<svg width="2791" height="1566" viewBox="0 0 2791 1566" fill="none" xmlns="http://www.w3.org/2000/svg">
<path d="M1807.73 345.5L1907.08 173H2108.77L2009.92 345.5H1807.73Z" fill="#6E61FF" stroke="#DCE0DF" stroke-width="2"/>
<path d="M1906.73 173.5L2006.08 1H2207.77L2108.92 173.5H1906.73Z" fill="#6E61FF" stroke="#DCE0DF" stroke-width="2"/>
<path d="M1102.25 533.499L1000.33 357.999L1103.24 180.012L1202.68 357.997L1102.25 533.499Z" fill="#342AAC" stroke="#DCE0DF"/>
<path d="M2208.25 354.499L2106.33 178.999L2209.24 1.01184L2308.68 178.997L2208.25 354.499Z" fill="#342AAC" stroke="#DCE0DF"/>
<path d="M2109.25 525.499L2007.33 349.999L2110.24 172.012L2209.68 349.997L2109.25 525.499Z" fill="#342AAC" stroke="#DCE0DF"/>
<path d="M599.247 1050.5L497.329 875.001L598.5 702.488L699.672 875.003L599.247 1050.5Z" fill="#342AAC" stroke="#DCE0DF"/>
<path d="M801.247 695.999L699.329 520.501L800.5 347.988L901.672 520.503L801.247 695.999Z" fill="#342AAC" stroke="#DCE0DF"/>
<path d="M500.372 1224L398.454 1048.5L499.625 875.988L600.797 1048.5L500.372 1224Z" fill="#342AAC" stroke="#DCE0DF"/>
<path d="M798.372 702.499L696.454 527.001L797.625 354.488L898.797 527.003L798.372 702.499Z" fill="#342AAC" stroke="#DCE0DF"/>
<path d="M400.372 1398L298.454 1222.5L399.625 1049.99L500.797 1222.5L400.372 1398Z" fill="#342AAC" stroke="#DCE0DF"/>
<path d="M304.372 1565L202.454 1389.5L303.625 1216.99L404.797 1389.5L304.372 1565Z" fill="#342AAC" stroke="#DCE0DF"/>
<path d="M699.372 875.499L597.454 700.001L698.625 527.488L799.797 700.003L699.372 875.499Z" fill="#342AAC" stroke="#DCE0DF"/>
<path d="M1201.77 703.5L1102.42 531H900.726L999.579 703.5H1201.77Z" fill="#342AAC" stroke="#DCE0DF" stroke-width="2"/>
<path d="M1304.77 870.5L1205.42 698H1003.73L1102.58 870.5H1304.77Z" fill="#2A56C6" stroke="#DCE0DF" stroke-width="2"/>
<path d="M1500.77 1212.5L1401.42 1040H1199.73L1298.58 1212.5H1500.77Z" fill="#342AAC" stroke="#DCE0DF" stroke-width="2"/>
<path d="M1101.77 529.5L1002.42 357H800.726L899.579 529.5H1101.77Z" fill="#342AAC" stroke="#DCE0DF" stroke-width="2"/>
<path d="M1707.74 519.5L1808.57 347H2008.77L1909.92 519.5H1707.74Z" fill="#EA80FC" stroke="#DCE0DF" stroke-width="2"/>
<path d="M1000.73 695.5L1100.08 523H1301.77L1202.92 695.5H1000.73Z" fill="#5E97F6" stroke="#DCE0DF" stroke-width="2"/>
<path d="M497.73 529.5L597.078 357H798.774L699.921 529.5H497.73Z" fill="#6E61FF" stroke="#DCE0DF" stroke-width="2"/>
<path d="M1102.25 1216.5L1000.33 1041L1103.24 863.012L1202.68 1041L1102.25 1216.5Z" fill="#00796B" stroke="#DCE0DF"/>
<path d="M1002.25 1390.5L900.328 1215L1003.24 1037.01L1102.68 1215L1002.25 1390.5Z" fill="#00796B" stroke="#DCE0DF"/>
<path d="M1105.25 1564.5L1003.33 1389L1106.24 1211.01L1205.68 1389L1105.25 1564.5Z" fill="#2A56C6" stroke="#DCE0DF"/>
<path d="M1805.77 695.5L1706.42 523H1504.73L1603.58 695.5H1805.77Z" fill="#00695C" stroke="#DCE0DF" stroke-width="2"/>
<path d="M2109.77 1216.5L2010.42 1044H1808.73L1907.58 1216.5H2109.77Z" fill="#00695C" stroke="#DCE0DF" stroke-width="2"/>
<path d="M2209.77 1389.5L2110.42 1217H1908.73L2007.58 1389.5H2209.77Z" fill="#00695C" stroke="#DCE0DF" stroke-width="2"/>
<path d="M2309.77 1562.5L2210.42 1390H2008.73L2107.58 1562.5H2309.77Z" fill="#00695C" stroke="#DCE0DF" stroke-width="2"/>
<path d="M1200.73 347.5L1300.08 175H1501.77L1402.92 347.5H1200.73Z" fill="#5E97F6" stroke="#DCE0DF" stroke-width="2"/>
<path d="M798.73 354.5L898.078 182H1099.77L1000.92 354.5H798.73Z" fill="#6E61FF" stroke="#DCE0DF" stroke-width="2"/>
<path d="M1404.73 347.5L1504.08 175H1705.77L1606.92 347.5H1404.73Z" fill="#5E97F6" stroke="#DCE0DF" stroke-width="2"/>
<path d="M900.73 869.5L1000.08 697H1201.77L1102.92 869.5H900.73Z" fill="#5E97F6" stroke="#DCE0DF" stroke-width="2"/>
<path d="M397.73 703.5L497.078 531H698.774L599.921 703.5H397.73Z" fill="#6E61FF" stroke="#DCE0DF" stroke-width="2"/>
<path d="M800.73 1042.5L900.078 870H1101.77L1002.92 1042.5H800.73Z" fill="#5E97F6" stroke="#DCE0DF" stroke-width="2"/>
<path d="M297.73 876.5L397.078 704H598.774L499.921 876.5H297.73Z" fill="#6E61FF" stroke="#DCE0DF" stroke-width="2"/>
<path d="M700.73 1216.5L800.078 1044H1001.77L902.921 1216.5H700.73Z" fill="#5E97F6" stroke="#DCE0DF" stroke-width="2"/>
<path d="M197.73 1050.5L297.078 878H498.774L399.921 1050.5H197.73Z" fill="#6E61FF" stroke="#DCE0DF" stroke-width="2"/>
<path d="M601.73 1388.5L701.078 1216H902.774L803.921 1388.5H601.73Z" fill="#5E97F6" stroke="#DCE0DF" stroke-width="2"/>
<path d="M98.7299 1222.5L198.078 1050H399.774L300.921 1222.5H98.7299Z" fill="#6E61FF" stroke="#DCE0DF" stroke-width="2"/>
<path d="M1.72993 1391.5L101.078 1219H302.774L203.921 1391.5H1.72993Z" fill="#6E61FF" stroke="#DCE0DF" stroke-width="2"/>
<path d="M302.77 1564.5L203.422 1392H1.72565L100.579 1564.5H302.77Z" fill="#342AAC" stroke="#DCE0DF" stroke-width="2"/>
<path d="M1708.77 1559.5L1609.42 1387H1407.73L1506.58 1559.5H1708.77Z" fill="#6A1B9A" stroke="#DCE0DF" stroke-width="2"/>
<path d="M801.73 1387.5L901.078 1215H1102.77L1003.92 1387.5H801.73Z" fill="#5E97F6" stroke="#DCE0DF" stroke-width="2"/>
<path d="M1905.77 869.5L1806.42 697H1604.73L1703.58 869.5H1905.77Z" fill="#00695C" stroke="#DCE0DF" stroke-width="2"/>
<path d="M1100.73 521.5L1200.08 349H1401.77L1302.92 521.5H1100.73Z" fill="#5E97F6" stroke="#DCE0DF" stroke-width="2"/>
<path d="M597.73 355.5L697.078 183H898.774L799.921 355.5H597.73Z" fill="#6E61FF" stroke="#DCE0DF" stroke-width="2"/>
<path d="M1705.77 521.5L1606.42 349H1404.73L1503.58 521.5H1705.77Z" fill="#00695C" stroke="#DCE0DF" stroke-width="2"/>
<path d="M902.79 1564L802.363 1389H1003.21L1104.63 1564H902.79Z" fill="#2A56C6" stroke="#DCE0DF"/>
<path d="M701.29 1564.5L600.863 1389.5H801.712L903.132 1564.5H701.29Z" fill="#2A56C6" stroke="#DCE0DF"/>
<path d="M1708.25 524.505L1606.33 349L1708 173.995L1809.92 349.5L1708.25 524.505Z" fill="#00796B" stroke="#DCE0DF"/>
<path d="M1809.38 700.505L1707.45 525L1809.12 349.995L1911.05 525.5L1809.38 700.505Z" fill="#00796B" stroke="#DCE0DF"/>
<path d="M2113.38 1221.5L2011.45 1046L2113.12 870.995L2215.05 1046.5L2113.38 1221.5Z" fill="#00796B" stroke="#DCE0DF"/>
<path d="M2213.38 1394.5L2111.45 1219L2213.12 1044L2315.05 1219.5L2213.38 1394.5Z" fill="#00796B" stroke="#DCE0DF"/>
<path d="M1907.38 869.505L1805.45 694L1907.12 518.995L2009.05 694.5L1907.38 869.505Z" fill="#00796B" stroke="#DCE0DF"/>
<path d="M2011.38 1044.5L1909.45 869L2011.12 693.995L2113.05 869.5L2011.38 1044.5Z" fill="#9C27B0" stroke="#DCE0DF"/>
<path d="M1908.38 1218.5L1806.45 1043L1908.12 867.995L2010.05 1043.5L1908.38 1218.5Z" fill="#9C27B0" stroke="#DCE0DF"/>
<path d="M1807.38 1386.5L1705.45 1211L1807.12 1036L1909.05 1211.5L1807.38 1386.5Z" fill="#9C27B0" stroke="#DCE0DF"/>
<path d="M1507.38 1217.5L1405.45 1042L1507.12 866.995L1609.05 1042.5L1507.38 1217.5Z" fill="#342AAC" stroke="#DCE0DF"/>
<path d="M1707.38 1561.5L1605.45 1386L1707.12 1211L1809.05 1386.5L1707.38 1561.5Z" fill="#9C27B0" stroke="#DCE0DF"/>
<path d="M2112.38 868.505L2010.45 693L2112.12 517.995L2214.05 693.5L2112.38 868.505Z" fill="#9C27B0" stroke="#DCE0DF"/>
<path d="M2614.38 697.505L2512.45 522L2614.12 346.995L2716.05 522.5L2614.38 697.505Z" fill="#9C27B0" stroke="#DCE0DF"/>
<path d="M1403.25 701.499L1301.33 525.999L1404.24 348.012L1503.68 525.997L1403.25 701.499Z" fill="#00796B" stroke="#DCE0DF"/>
<path d="M1302.25 877.499L1200.33 701.999L1303.24 524.012L1402.68 701.997L1302.25 877.499Z" fill="#00796B" stroke="#DCE0DF"/>
<path d="M1101.74 864.5L1202.57 692H1402.77L1303.92 864.5H1101.74Z" fill="#5E97F6" stroke="#DCE0DF" stroke-width="2"/>
<path d="M1301.74 864.5L1402.57 692H1602.77L1503.92 864.5H1301.74Z" fill="#26A69A" stroke="#DCE0DF" stroke-width="2"/>
<path d="M1503.74 865.5L1604.57 693H1804.77L1705.92 865.5H1503.74Z" fill="#26A69A" stroke="#DCE0DF" stroke-width="2"/>
<path d="M1704.74 868.5L1805.57 696H2005.77L1906.92 868.5H1704.74Z" fill="#EA80FC" stroke="#DCE0DF" stroke-width="2"/>
<path d="M1807.74 693.5L1908.57 521H2108.77L2009.92 693.5H1807.74Z" fill="#EA80FC" stroke="#DCE0DF" stroke-width="2"/>
<path d="M1909.74 519.5L2010.57 347H2210.77L2111.92 519.5H1909.74Z" fill="#EA80FC" stroke="#DCE0DF" stroke-width="2"/>
<path d="M2111.74 520.5L2212.57 348H2412.77L2313.92 520.5H2111.74Z" fill="#EA80FC" stroke="#DCE0DF" stroke-width="2"/>
<path d="M2310.74 520.5L2411.57 348H2611.77L2512.92 520.5H2310.74Z" fill="#EA80FC" stroke="#DCE0DF" stroke-width="2"/>
<path d="M2114.74 521L2215.57 693.5H2415.77L2316.92 521H2114.74Z" fill="#9C27B0" stroke="#DCE0DF" stroke-width="2"/>
<path d="M2313.74 521L2414.57 693.5H2614.77L2515.92 521H2313.74Z" fill="#9C27B0" stroke="#DCE0DF" stroke-width="2"/>
<path d="M1201.58 1040L1101.73 866H1301.42L1402.26 1040H1201.58Z" fill="#00695C" stroke="#DCE0DF" stroke-width="2"/>
<path d="M1401.58 1040L1301.73 866H1501.42L1602.26 1040H1401.58Z" fill="#00695C" stroke="#DCE0DF" stroke-width="2"/>
<path d="M1605.58 1042L1505.73 868H1705.42L1806.26 1042H1605.58Z" fill="#00695C" stroke="#DCE0DF" stroke-width="2"/>
<path d="M1605.74 1039.5L1706.57 867H1906.77L1807.92 1039.5H1605.74Z" fill="#EA80FC" stroke="#DCE0DF" stroke-width="2"/>
<path d="M1505.74 1212.5L1606.57 1040H1806.77L1707.92 1212.5H1505.74Z" fill="#EA80FC" stroke="#DCE0DF" stroke-width="2"/>
<path d="M2311.38 1563.5L2209.45 1388L2311.12 1213L2413.05 1388.5L2311.38 1563.5Z" fill="#00796B" stroke="#DCE0DF"/>
<path d="M1405.74 1387.5L1506.57 1215H1706.77L1607.92 1387.5H1405.74Z" fill="#EA80FC" stroke="#DCE0DF" stroke-width="2"/>
</svg>
